%TF.GenerationSoftware,KiCad,Pcbnew,9.0.6*%
%TF.CreationDate,2026-01-07T19:32:53-06:00*%
%TF.ProjectId,mz100ISA,6d7a3130-3049-4534-912e-6b696361645f,rev?*%
%TF.SameCoordinates,Original*%
%TF.FileFunction,Soldermask,Bot*%
%TF.FilePolarity,Negative*%
%FSLAX46Y46*%
G04 Gerber Fmt 4.6, Leading zero omitted, Abs format (unit mm)*
G04 Created by KiCad (PCBNEW 9.0.6) date 2026-01-07 19:32:53*
%MOMM*%
%LPD*%
G01*
G04 APERTURE LIST*
G04 Aperture macros list*
%AMRoundRect*
0 Rectangle with rounded corners*
0 $1 Rounding radius*
0 $2 $3 $4 $5 $6 $7 $8 $9 X,Y pos of 4 corners*
0 Add a 4 corners polygon primitive as box body*
4,1,4,$2,$3,$4,$5,$6,$7,$8,$9,$2,$3,0*
0 Add four circle primitives for the rounded corners*
1,1,$1+$1,$2,$3*
1,1,$1+$1,$4,$5*
1,1,$1+$1,$6,$7*
1,1,$1+$1,$8,$9*
0 Add four rect primitives between the rounded corners*
20,1,$1+$1,$2,$3,$4,$5,0*
20,1,$1+$1,$4,$5,$6,$7,0*
20,1,$1+$1,$6,$7,$8,$9,0*
20,1,$1+$1,$8,$9,$2,$3,0*%
G04 Aperture macros list end*
%ADD10RoundRect,0.102000X0.819150X0.819150X-0.819150X0.819150X-0.819150X-0.819150X0.819150X-0.819150X0*%
%ADD11C,1.842300*%
%ADD12C,2.850000*%
%ADD13RoundRect,0.249999X-0.525001X-0.525001X0.525001X-0.525001X0.525001X0.525001X-0.525001X0.525001X0*%
%ADD14C,1.550000*%
G04 APERTURE END LIST*
D10*
%TO.C,J2*%
X210820000Y-101828600D03*
D11*
X210820000Y-106680000D03*
X208280000Y-101828600D03*
X208280000Y-106680000D03*
X205740000Y-101828600D03*
X205740000Y-106680000D03*
X203200000Y-101828600D03*
X203200000Y-106680000D03*
X200660000Y-101828600D03*
X200660000Y-106680000D03*
X198120000Y-101828600D03*
X198120000Y-106680000D03*
X195580000Y-101828600D03*
X195580000Y-106680000D03*
X193040000Y-101828600D03*
X193040000Y-106680000D03*
X190500000Y-101828600D03*
X190500000Y-106680000D03*
X187960000Y-101828600D03*
X187960000Y-106680000D03*
X185420000Y-101828600D03*
X185420000Y-106680000D03*
X182880000Y-101828600D03*
X182880000Y-106680000D03*
X180340000Y-101828600D03*
X180340000Y-106680000D03*
X177800000Y-101828600D03*
X177800000Y-106680000D03*
X175260000Y-101828600D03*
X175260000Y-106680000D03*
X172720000Y-101828600D03*
X172720000Y-106680000D03*
X170180000Y-101828600D03*
X170180000Y-106680000D03*
X167640000Y-101828600D03*
X167640000Y-106680000D03*
X165100000Y-101828600D03*
X165100000Y-106680000D03*
X162560000Y-101828600D03*
X162560000Y-106680000D03*
X160020000Y-101828600D03*
X160020000Y-106680000D03*
X157480000Y-101828600D03*
X157480000Y-106680000D03*
X154940000Y-101828600D03*
X154940000Y-106680000D03*
X152400000Y-101828600D03*
X152400000Y-106680000D03*
X149860000Y-101828600D03*
X149860000Y-106680000D03*
X147320000Y-101828600D03*
X147320000Y-106680000D03*
X144780000Y-101828600D03*
X144780000Y-106680000D03*
X142240000Y-101828600D03*
X142240000Y-106680000D03*
X139700000Y-101828600D03*
X139700000Y-106680000D03*
X137160000Y-101828600D03*
X137160000Y-106680000D03*
X134620000Y-101828600D03*
X134620000Y-106680000D03*
%TD*%
D12*
%TO.C,J1*%
X129633000Y-66520700D03*
X218533000Y-66520700D03*
D13*
X134713000Y-69060700D03*
D14*
X137253000Y-69060700D03*
X139793000Y-69060700D03*
X142333000Y-69060700D03*
X144873000Y-69060700D03*
X147413000Y-69060700D03*
X149953000Y-69060700D03*
X152493000Y-69060700D03*
X155033000Y-69060700D03*
X157573000Y-69060700D03*
X160113000Y-69060700D03*
X162653000Y-69060700D03*
X165193000Y-69060700D03*
X167733000Y-69060700D03*
X170273000Y-69060700D03*
X172813000Y-69060700D03*
X175353000Y-69060700D03*
X177893000Y-69060700D03*
X180433000Y-69060700D03*
X182973000Y-69060700D03*
X185513000Y-69060700D03*
X188053000Y-69060700D03*
X190593000Y-69060700D03*
X193133000Y-69060700D03*
X195673000Y-69060700D03*
X198213000Y-69060700D03*
X200753000Y-69060700D03*
X203293000Y-69060700D03*
X205833000Y-69060700D03*
X208373000Y-69060700D03*
X210913000Y-69060700D03*
X213453000Y-69060700D03*
X134713000Y-71600700D03*
X137253000Y-71600700D03*
X139793000Y-71600700D03*
X142333000Y-71600700D03*
X144873000Y-71600700D03*
X147413000Y-71600700D03*
X149953000Y-71600700D03*
X152493000Y-71600700D03*
X155033000Y-71600700D03*
X157573000Y-71600700D03*
X160113000Y-71600700D03*
X162653000Y-71600700D03*
X165193000Y-71600700D03*
X167733000Y-71600700D03*
X170273000Y-71600700D03*
X172813000Y-71600700D03*
X175353000Y-71600700D03*
X177893000Y-71600700D03*
X180433000Y-71600700D03*
X182973000Y-71600700D03*
X185513000Y-71600700D03*
X188053000Y-71600700D03*
X190593000Y-71600700D03*
X193133000Y-71600700D03*
X195673000Y-71600700D03*
X198213000Y-71600700D03*
X200753000Y-71600700D03*
X203293000Y-71600700D03*
X205833000Y-71600700D03*
X208373000Y-71600700D03*
X210913000Y-71600700D03*
X213453000Y-71600700D03*
X134713000Y-74140700D03*
X137253000Y-74140700D03*
X139793000Y-74140700D03*
X142333000Y-74140700D03*
X144873000Y-74140700D03*
X147413000Y-74140700D03*
X149953000Y-74140700D03*
X152493000Y-74140700D03*
X155033000Y-74140700D03*
X157573000Y-74140700D03*
X160113000Y-74140700D03*
X162653000Y-74140700D03*
X165193000Y-74140700D03*
X167733000Y-74140700D03*
X170273000Y-74140700D03*
X172813000Y-74140700D03*
X175353000Y-74140700D03*
X177893000Y-74140700D03*
X180433000Y-74140700D03*
X182973000Y-74140700D03*
X185513000Y-74140700D03*
X188053000Y-74140700D03*
X190593000Y-74140700D03*
X193133000Y-74140700D03*
X195673000Y-74140700D03*
X198213000Y-74140700D03*
X200753000Y-74140700D03*
X203293000Y-74140700D03*
X205833000Y-74140700D03*
X208373000Y-74140700D03*
X210913000Y-74140700D03*
X213453000Y-74140700D03*
%TD*%
M02*
