M48
; DRILL file {KiCad 9.0.6} date 2026-01-07T19:33:02-0600
; FORMAT={-:-/ absolute / metric / decimal}
; #@! TF.CreationDate,2026-01-07T19:33:02-06:00
; #@! TF.GenerationSoftware,Kicad,Pcbnew,9.0.6
; #@! TF.FileFunction,Plated,1,2,PTH
FMAT,2
METRIC
; #@! TA.AperFunction,Plated,PTH,ViaDrill
T1C0.300
; #@! TA.AperFunction,Plated,PTH,ComponentDrill
T2C1.000
; #@! TA.AperFunction,Plated,PTH,ComponentDrill
T3C1.092
%
G90
G05
T1
X137.16Y-81.28
X139.551Y-70.349
X142.24Y-66.04
X142.24Y-104.14
X147.32Y-76.2
X147.92Y-76.766
X149.86Y-78.74
X149.86Y-81.28
X150.571Y-76.911
X152.4Y-66.04
X152.4Y-76.2
X154.94Y-66.04
X154.94Y-78.74
X157.48Y-81.28
X159.893Y-82.699
X160.02Y-66.04
X160.02Y-81.28
X162.56Y-66.04
X162.661Y-67.385
X165.1Y-99.06
X165.164Y-87.588
X170.071Y-81.389
X172.571Y-70.349
X177.234Y-76.8
X177.8Y-66.64
X177.8Y-76.2
X182.88Y-66.04
X182.88Y-78.74
X185.42Y-66.04
X185.42Y-81.28
X185.42Y-83.82
X190.5Y-66.04
X190.5Y-79.34
X195.58Y-78.74
X202.6Y-88.9
X208.28Y-88.9
X213.36Y-66.04
X213.36Y-99.06
X213.36Y-104.14
T2
X134.713Y-69.061
X134.713Y-71.601
X134.713Y-74.141
X137.253Y-69.061
X137.253Y-71.601
X137.253Y-74.141
X139.793Y-69.061
X139.793Y-71.601
X139.793Y-74.141
X142.333Y-69.061
X142.333Y-71.601
X142.333Y-74.141
X144.873Y-69.061
X144.873Y-71.601
X144.873Y-74.141
X147.413Y-69.061
X147.413Y-71.601
X147.413Y-74.141
X149.953Y-69.061
X149.953Y-71.601
X149.953Y-74.141
X152.493Y-69.061
X152.493Y-71.601
X152.493Y-74.141
X155.033Y-69.061
X155.033Y-71.601
X155.033Y-74.141
X157.573Y-69.061
X157.573Y-71.601
X157.573Y-74.141
X160.113Y-69.061
X160.113Y-71.601
X160.113Y-74.141
X162.653Y-69.061
X162.653Y-71.601
X162.653Y-74.141
X165.193Y-69.061
X165.193Y-71.601
X165.193Y-74.141
X167.733Y-69.061
X167.733Y-71.601
X167.733Y-74.141
X170.273Y-69.061
X170.273Y-71.601
X170.273Y-74.141
X172.813Y-69.061
X172.813Y-71.601
X172.813Y-74.141
X175.353Y-69.061
X175.353Y-71.601
X175.353Y-74.141
X177.893Y-69.061
X177.893Y-71.601
X177.893Y-74.141
X180.433Y-69.061
X180.433Y-71.601
X180.433Y-74.141
X182.973Y-69.061
X182.973Y-71.601
X182.973Y-74.141
X185.513Y-69.061
X185.513Y-71.601
X185.513Y-74.141
X188.053Y-69.061
X188.053Y-71.601
X188.053Y-74.141
X190.593Y-69.061
X190.593Y-71.601
X190.593Y-74.141
X193.133Y-69.061
X193.133Y-71.601
X193.133Y-74.141
X195.673Y-69.061
X195.673Y-71.601
X195.673Y-74.141
X198.213Y-69.061
X198.213Y-71.601
X198.213Y-74.141
X200.753Y-69.061
X200.753Y-71.601
X200.753Y-74.141
X203.293Y-69.061
X203.293Y-71.601
X203.293Y-74.141
X205.833Y-69.061
X205.833Y-71.601
X205.833Y-74.141
X208.373Y-69.061
X208.373Y-71.601
X208.373Y-74.141
X210.913Y-69.061
X210.913Y-71.601
X210.913Y-74.141
X213.453Y-69.061
X213.453Y-71.601
X213.453Y-74.141
T3
X134.62Y-101.829
X134.62Y-106.68
X137.16Y-101.829
X137.16Y-106.68
X139.7Y-101.829
X139.7Y-106.68
X142.24Y-101.829
X142.24Y-106.68
X144.78Y-101.829
X144.78Y-106.68
X147.32Y-101.829
X147.32Y-106.68
X149.86Y-101.829
X149.86Y-106.68
X152.4Y-101.829
X152.4Y-106.68
X154.94Y-101.829
X154.94Y-106.68
X157.48Y-101.829
X157.48Y-106.68
X160.02Y-101.829
X160.02Y-106.68
X162.56Y-101.829
X162.56Y-106.68
X165.1Y-101.829
X165.1Y-106.68
X167.64Y-101.829
X167.64Y-106.68
X170.18Y-101.829
X170.18Y-106.68
X172.72Y-101.829
X172.72Y-106.68
X175.26Y-101.829
X175.26Y-106.68
X177.8Y-101.829
X177.8Y-106.68
X180.34Y-101.829
X180.34Y-106.68
X182.88Y-101.829
X182.88Y-106.68
X185.42Y-101.829
X185.42Y-106.68
X187.96Y-101.829
X187.96Y-106.68
X190.5Y-101.829
X190.5Y-106.68
X193.04Y-101.829
X193.04Y-106.68
X195.58Y-101.829
X195.58Y-106.68
X198.12Y-101.829
X198.12Y-106.68
X200.66Y-101.829
X200.66Y-106.68
X203.2Y-101.829
X203.2Y-106.68
X205.74Y-101.829
X205.74Y-106.68
X208.28Y-101.829
X208.28Y-106.68
X210.82Y-101.829
X210.82Y-106.68
M30
